<?xml version="1.0" encoding="iso-8859-1"?>
<!-- Generator: Adobe Illustrator 19.0.0, SVG Export Plug-In . SVG Version: 6.00 Build 0)  -->
<svg version="1.1" id="Capa_1" xmlns="http://www.w3.org/2000/svg" xmlns:xlink="http://www.w3.org/1999/xlink" x="0px" y="0px"
	 viewBox="0 0 470.001 470.001" style="enable-background:new 0 0 470.001 470.001;" xml:space="preserve">
<g>
	<path style="fill:#3D2A20;" d="M467.804,95.634c-4.579-4.578-5.611-7.707-6.917-11.668c-1.54-4.667-3.455-10.476-10.556-17.577
		c-7.101-7.101-12.91-9.017-17.577-10.556c-3.962-1.307-7.09-2.339-11.669-6.918s-5.611-7.707-6.918-11.669
		c-1.539-4.667-3.455-10.477-10.556-17.577c-7.102-7.101-12.91-9.017-17.577-10.556c-3.961-1.307-7.09-2.338-11.669-6.917
		c-1.656-1.656-3.995-2.443-6.311-2.128c-2.321,0.314-4.361,1.695-5.517,3.732c-1.042,1.839-22.468,40.195-21.237,81.094
		c-30.04-21.336-66.731-33.893-106.301-33.893c-101.457,0-183.998,82.541-183.998,183.997c0,39.57,12.557,76.261,33.893,106.301
		c-40.898-1.23-79.256,20.195-81.095,21.238c-2.037,1.155-3.418,3.196-3.733,5.517c-0.314,2.32,0.473,4.655,2.129,6.312
		c4.579,4.578,5.611,7.707,6.917,11.668c1.539,4.667,3.455,10.476,10.556,17.577c7.101,7.101,12.91,9.017,17.577,10.556
		c3.961,1.307,7.09,2.339,11.669,6.918s5.611,7.707,6.917,11.669c1.54,4.667,3.456,10.477,10.557,17.576
		c7.101,7.102,12.909,9.018,17.577,10.557c3.96,1.307,7.089,2.338,11.668,6.917c1.416,1.416,3.328,2.196,5.303,2.196
		c0.335,0,0.672-0.022,1.009-0.068c2.32-0.314,4.361-1.695,5.516-3.732c1.043-1.839,22.467-40.195,21.238-81.095
		c30.04,21.336,66.731,33.893,106.301,33.893c101.456,0,183.997-82.541,183.997-183.998c0-39.571-12.558-76.263-33.895-106.304
		c1.141,0.034,2.281,0.058,3.418,0.058c39.595,0,75.892-20.277,77.68-21.291c2.037-1.155,3.418-3.196,3.732-5.517
		C470.248,99.625,469.46,97.29,467.804,95.634z M367.115,129.743l-43.741,31.779c-12.163-14.604-27.868-26.156-45.785-33.326
		l16.715-51.444C323.125,87.588,348.224,106.081,367.115,129.743z M248.964,334.009c-4.013,0.561-6.829,4.2-6.414,8.198
		c0.009,0.089,0.011,0.177,0.024,0.267c0.523,3.751,3.736,6.464,7.418,6.464c0.346,0,0.695-0.024,1.047-0.073
		c4.154-0.58,8.255-1.39,12.29-2.414l16.714,51.442c-14.346,3.972-29.449,6.104-45.042,6.104s-30.695-2.133-45.042-6.104
		l16.715-51.442c4.035,1.024,8.136,1.833,12.289,2.414c4.11,0.582,7.893-2.288,8.465-6.391c0.013-0.09,0.014-0.178,0.024-0.267
		c0.415-3.997-2.401-7.637-6.414-8.198c-49.041-6.85-86.022-49.414-86.022-99.01c0-55.131,44.853-99.983,99.984-99.983
		c55.132,0,99.984,44.853,99.984,99.983C334.985,284.595,298.004,327.159,248.964,334.009z M192.412,128.196
		c-17.917,7.17-33.623,18.722-45.786,33.326l-43.741-31.779c18.891-23.662,43.99-42.154,72.811-52.99L192.412,128.196z
		 M137.796,173.646c-9.996,15.78-16.253,34.148-17.528,53.853H66.178c1.385-31.543,11.456-60.865,27.877-85.633L137.796,173.646z
		 M120.264,242.499c1.252,19.204,7.292,37.714,17.5,53.877l-43.709,31.757c-16.421-24.768-26.492-54.09-27.877-85.633H120.264z
		 M332.237,296.376c10.208-16.163,16.248-34.673,17.5-53.877h54.085c-1.385,31.543-11.456,60.865-27.877,85.633L332.237,296.376z
		 M349.734,227.499c-1.275-19.705-7.533-38.073-17.529-53.854l43.741-31.779c16.421,24.768,26.492,54.089,27.876,85.633H349.734z
		 M280.042,72.107l-16.715,51.444c-9.065-2.305-18.555-3.534-28.327-3.534c-9.772,0-19.261,1.229-28.326,3.534l-16.715-51.444
		c14.346-3.972,29.449-6.104,45.041-6.104C250.594,66.002,265.696,68.135,280.042,72.107z M102.886,340.257l43.7-31.75
		c0.636,0.764,1.279,1.522,1.936,2.271c12.08,13.773,27.159,24.358,43.887,31.035l-16.712,51.435
		C146.876,382.411,121.777,363.919,102.886,340.257z M294.304,393.247l-16.712-51.435c16.728-6.677,31.807-17.262,43.887-31.035
		c0.657-0.749,1.3-1.507,1.936-2.271l43.7,31.75C348.224,363.919,323.125,382.411,294.304,393.247z M98.361,450.876
		c-3.667-2.246-6.888-3.309-9.696-4.234c-3.961-1.307-7.09-2.338-11.669-6.918c-4.579-4.579-5.611-7.707-6.917-11.669
		c-1.54-4.667-3.456-10.477-10.557-17.577c-7.101-7.101-12.909-9.017-17.577-10.556c-3.961-1.307-7.09-2.339-11.669-6.918
		c-4.579-4.578-5.611-7.707-6.917-11.668c-0.926-2.809-1.988-6.029-4.234-9.697c14.881-6.874,48.254-19.744,78.95-13.872
		c4.461,4.971,9.188,9.698,14.159,14.159C118.105,402.622,105.233,435.998,98.361,450.876z M371.927,112.234
		c-4.462-4.971-9.189-9.698-14.16-14.16c-5.871-30.696,7.001-64.071,13.872-78.949c3.668,2.246,6.889,3.309,9.697,4.234
		c3.961,1.307,7.089,2.338,11.668,6.918c4.579,4.579,5.611,7.707,6.918,11.669c1.539,4.667,3.455,10.477,10.556,17.577
		s12.91,9.017,17.577,10.556c3.962,1.307,7.09,2.339,11.669,6.918c4.579,4.578,5.611,7.707,6.917,11.668
		c0.928,2.811,1.99,6.035,4.241,9.707C436.027,105.25,402.702,118.121,371.927,112.234z"/>
	<path style="fill:#FFFFFF;" d="M192.409,341.813c-16.728-6.677-31.807-17.262-43.887-31.035c-0.657-0.749-1.3-1.508-1.936-2.271
		l-43.7,31.75c18.891,23.662,43.99,42.154,72.811,52.991L192.409,341.813z"/>
	<path style="fill:#FFFFFF;" d="M206.674,123.55c9.065-2.305,18.554-3.534,28.326-3.534c9.772,0,19.262,1.229,28.327,3.534
		l16.715-51.444c-14.346-3.972-29.449-6.104-45.042-6.104c-15.593,0-30.695,2.133-45.041,6.104L206.674,123.55z"/>
	<path style="fill:#FFFFFF;" d="M323.415,308.507c-0.635,0.764-1.279,1.522-1.936,2.271c-12.08,13.773-27.159,24.357-43.887,31.035
		l16.712,51.435c28.821-10.836,53.92-29.328,72.81-52.99L323.415,308.507z"/>
	<path style="fill:#FFFFFF;" d="M332.205,173.646c9.996,15.78,16.253,34.148,17.529,53.854h54.089
		c-1.385-31.543-11.456-60.865-27.876-85.633L332.205,173.646z"/>
	<path style="fill:#FFFFFF;" d="M334.985,234.999c0-55.131-44.853-99.983-99.984-99.983c-55.131,0-99.984,44.853-99.984,99.983
		c0,49.596,36.981,92.16,86.022,99.01c4.012,0.561,6.829,4.2,6.414,8.198c2.495,0.173,5.01,0.277,7.55,0.277
		c2.539,0,5.053-0.104,7.548-0.277c-0.415-3.997,2.401-7.637,6.414-8.198C298.004,327.159,334.985,284.595,334.985,234.999z"/>
	<path style="fill:#FFFFFF;" d="M120.267,227.499c1.275-19.705,7.533-38.073,17.528-53.853l-43.741-31.779
		c-16.421,24.768-26.492,54.089-27.877,85.633H120.267z"/>
	<path style="fill:#E7453F;" d="M227.452,342.207c-0.009,0.089-0.011,0.178-0.024,0.267c-0.573,4.103-4.355,6.973-8.465,6.391
		c-4.153-0.58-8.255-1.389-12.289-2.414l-16.715,51.442c14.346,3.972,29.449,6.104,45.042,6.104s30.696-2.133,45.042-6.104
		l-16.714-51.442c-4.035,1.024-8.137,1.834-12.29,2.414c-0.352,0.049-0.701,0.073-1.047,0.073c-3.682,0-6.895-2.713-7.418-6.464
		c-0.013-0.09-0.014-0.178-0.024-0.267c-2.495,0.173-5.008,0.277-7.548,0.277C232.462,342.484,229.947,342.38,227.452,342.207z"/>
	<path style="fill:#E7453F;" d="M137.764,296.376c-10.208-16.163-16.248-34.672-17.5-53.877H66.178
		c1.385,31.543,11.456,60.865,27.877,85.633L137.764,296.376z"/>
	<path style="fill:#E7453F;" d="M349.738,242.499c-1.252,19.204-7.292,37.714-17.5,53.877l43.709,31.756
		c16.421-24.768,26.492-54.09,27.877-85.633H349.738z"/>
	<path style="fill:#E7453F;" d="M294.304,76.752l-16.715,51.444c17.917,7.17,33.622,18.722,45.785,33.326l43.741-31.779
		C348.224,106.081,323.125,87.588,294.304,76.752z"/>
	<path style="fill:#E7453F;" d="M102.886,129.743l43.741,31.779c12.163-14.604,27.869-26.156,45.786-33.326l-16.715-51.444
		C146.876,87.588,121.777,106.081,102.886,129.743z"/>
</g>
<g>
</g>
<g>
</g>
<g>
</g>
<g>
</g>
<g>
</g>
<g>
</g>
<g>
</g>
<g>
</g>
<g>
</g>
<g>
</g>
<g>
</g>
<g>
</g>
<g>
</g>
<g>
</g>
<g>
</g>
</svg>
