<?xml version="1.0" encoding="iso-8859-1"?>
<!-- Generator: Adobe Illustrator 19.0.0, SVG Export Plug-In . SVG Version: 6.00 Build 0)  -->
<svg version="1.1" id="Layer_1" xmlns="http://www.w3.org/2000/svg" xmlns:xlink="http://www.w3.org/1999/xlink" x="0px" y="0px"
	 viewBox="0 0 512 512" style="enable-background:new 0 0 512 512;" xml:space="preserve">
<g>
	<circle style="fill:#B2E3FF;" cx="256" cy="256" r="256"/>
	<circle style="fill:#B2E3FF;" cx="256" cy="256" r="256"/>
</g>
<path style="fill:#263750;" d="M451.164,421.584C445.82,425.592,439.2,428,432,428c-17.672,0-32-14.328-32-32c0-2.212-1.788-4-4-4
	s-4,1.788-4,4c0,17.672-14.328,32-32,32s-32-14.328-32-32c0-2.212-1.788-4-4-4s-4,1.788-4,4c0,17.672-14.328,32-32,32
	s-32-14.328-32-32c0-2.212-1.788-4-4-4s-4,1.788-4,4c0,17.672-14.328,32-32,32s-32-14.328-32-32c0-2.212-1.788-4-4-4s-4,1.788-4,4
	c0,17.672-14.328,32-32,32s-32-14.328-32-32c0-2.212-1.788-4-4-4s-4,1.788-4,4c0,17.672-14.328,32-32,32
	c-2.096,0-4.14-0.22-6.124-0.6C112.728,479.336,180.544,512,256,512C334.224,512,404.208,476.872,451.164,421.584z"/>
<path style="fill:#F5F5F5;" d="M364,292V172c0-8.8-7.2-16-16-16H188c-8.8,0-16,7.2-16,16v120H364z"/>
<path style="fill:#E6E6E6;" d="M348,156h-16c8.8,0,16,7.2,16,16v120h16V172C364,163.2,356.8,156,348,156z"/>
<g>
	<path style="fill:#242424;" d="M232,128c-2.208,0-4-1.792-4-4V76c0-2.208,1.792-4,4-4s4,1.792,4,4v48
		C236,126.208,234.208,128,232,128z"/>
	<path style="fill:#242424;" d="M308,128c-2.212,0-4-1.792-4-4V60c0-2.208,1.788-4,4-4s4,1.792,4,4v64
		C312,126.208,310.212,128,308,128z"/>
</g>
<rect x="192" y="120" style="fill:#E6E6E6;" width="152" height="36"/>
<rect x="332" y="120" style="fill:#CCCCCC;" width="12" height="36"/>
<rect x="212" y="192" style="fill:#F5F5F5;" width="112" height="56"/>
<g>
	<path style="fill:#263740;" d="M328,252H208v-64h120V252z M216,244h104v-48H216V244z"/>
	<path style="fill:#263740;" d="M268,252c-2.212,0-4-1.792-4-4v-56c0-2.208,1.788-4,4-4s4,1.792,4,4v56
		C272,250.208,270.212,252,268,252z"/>
	<polygon style="fill:#263740;" points="268,264 136,300 188,444 268,444 348,444 400,300 	"/>
</g>
<polygon style="fill:#1E2C33;" points="268,444 348,444 400,300 268,264 "/>
<polygon style="fill:#172126;" points="268,264 384,300 332,444 348,444 400,300 "/>
<rect x="192" y="152" style="fill:#CCCCCC;" width="152" height="4"/>
<path style="fill:#2179A6;" d="M256,512c73.548,0,139.804-31.064,186.496-80.728C438.436,425.908,436,419.252,436,412
	c0-2.212-1.788-4-4-4s-4,1.788-4,4c0,17.672-14.328,32-32,32s-32-14.328-32-32c0-2.212-1.788-4-4-4s-4,1.788-4,4
	c0,17.672-14.328,32-32,32s-32-14.328-32-32c0-2.212-1.788-4-4-4s-4,1.788-4,4c0,17.672-14.328,32-32,32s-32-14.328-32-32
	c0-2.212-1.788-4-4-4s-4,1.788-4,4c0,17.672-14.328,32-32,32s-32-14.328-32-32c0-2.212-1.788-4-4-4s-4,1.788-4,4
	c0,17.672-14.328,32-32,32s-32-14.328-32-32c0-2.212-1.788-4-4-4s-4,1.788-4,4c0,5.056-1.204,9.812-3.288,14.064
	C111.6,478.764,179.908,512,256,512z"/>
<path style="fill:#2995CC;" d="M256,512c56.212,0,108.156-18.164,150.384-48.88C402.396,457.78,400,451.176,400,444
	c0-2.212-1.788-4-4-4s-4,1.788-4,4c0,17.672-14.328,32-32,32s-32-14.328-32-32c0-2.212-1.788-4-4-4s-4,1.788-4,4
	c0,17.672-14.328,32-32,32s-32-14.328-32-32c0-2.212-1.788-4-4-4s-4,1.788-4,4c0,17.672-14.328,32-32,32s-32-14.328-32-32
	c0-2.212-1.788-4-4-4s-4,1.788-4,4c0,17.672-14.328,32-32,32s-32-14.328-32-32c0-2.212-1.788-4-4-4s-4,1.788-4,4
	c0,5.456-1.376,10.584-3.78,15.084C143.38,492.244,197.368,512,256,512z"/>
<g>
</g>
<g>
</g>
<g>
</g>
<g>
</g>
<g>
</g>
<g>
</g>
<g>
</g>
<g>
</g>
<g>
</g>
<g>
</g>
<g>
</g>
<g>
</g>
<g>
</g>
<g>
</g>
<g>
</g>
</svg>
